<svg id="Layer_1" data-name="Layer 1" xmlns="http://www.w3.org/2000/svg" viewBox="0 0 514.03 141.12"><title>logo</title><path d="M61,84.16V49.39H14.63V84.16H8.38V11h6.25V43.68H61V11h6.36V84.16H61Z" transform="translate(-8.38 -8.92)"/><path d="M114.44,84.16V76.37c-4.39,4.83-11.41,9.1-19.08,9.1-10.86,0-16.67-5-16.67-17V31.18h5.7v36c0,10.31,5.15,13.16,12.83,13.16,6.8,0,13.71-4.06,17.22-8.77V31.18h5.7v53h-5.7Z" transform="translate(-8.38 -8.92)"/><path d="M172.57,84.16V75.71a22.57,22.57,0,0,1-18.43,9.76c-14,0-23.69-10.75-23.69-27.75,0-16.78,9.65-27.86,23.69-27.86a22.49,22.49,0,0,1,18.43,9.87V11h5.81V84.16h-5.81Zm0-13.27V44.67A21.16,21.16,0,0,0,155.13,35c-11.74,0-18.54,9.87-18.54,22.7s6.8,22.59,18.54,22.59C162.59,80.32,169.5,75.93,172.57,70.88Z" transform="translate(-8.38 -8.92)"/><path d="M230.81,84.16V75.71a22.57,22.57,0,0,1-18.43,9.76c-14,0-23.69-10.75-23.69-27.75,0-16.78,9.65-27.86,23.69-27.86a22.49,22.49,0,0,1,18.43,9.87V11h5.81V84.16h-5.81Zm0-13.27V44.67A21.16,21.16,0,0,0,213.37,35c-11.74,0-18.54,9.87-18.54,22.7s6.8,22.59,18.54,22.59C220.83,80.32,227.74,75.93,230.81,70.88Z" transform="translate(-8.38 -8.92)"/><path d="M252.19,84.16V11h5.7V84.16h-5.7Z" transform="translate(-8.38 -8.92)"/><path d="M270.4,57.61c0-15.36,10.86-27.75,25.56-27.75,16.12,0,25,12.83,25,28.08v1.54H276.65c0.55,11.52,8.23,21.06,20.73,21.06a23.28,23.28,0,0,0,17.33-7.35l3,3.73c-5.26,5.48-12,8.56-20.73,8.56C281.48,85.47,270.4,74,270.4,57.61ZM295.84,34.8c-12.5,0-18.76,11-19.19,20.18h38.5C315,46,309.12,34.8,295.84,34.8Z" transform="translate(-8.38 -8.92)"/><path d="M391,84.16V32.94L370.42,84.16h-6.8L343,32.94V84.16H327.43V11h21.83L367,55.2,384.79,11h21.94V84.16H391Z" transform="translate(-8.38 -8.92)"/><path d="M452.68,84.16V78.67c-3.62,4.28-9.87,6.8-16.78,6.8-8.45,0-18.43-5.7-18.43-17.55,0-12.39,10-17.11,18.43-17.11,7,0,13.27,2.3,16.78,6.47V50.16c0-5.37-4.61-8.88-11.63-8.88a22.29,22.29,0,0,0-15.46,6.25l-5.26-9.32a34.75,34.75,0,0,1,23.14-8.34c12.06,0,23.14,4.83,23.14,20.07V84.16H452.68Zm0-12.72V64.85c-2.3-3.07-6.69-4.61-11.19-4.61-5.48,0-10,2.85-10,8,0,4.94,4.5,7.79,10,7.79C446,76,450.38,74.5,452.68,71.43Z" transform="translate(-8.38 -8.92)"/><path d="M479,17.14a8.34,8.34,0,1,1,8.33,8.34A8.4,8.4,0,0,1,479,17.14Zm1.43,67v-53h13.93v53H480.43Z" transform="translate(-8.38 -8.92)"/><path d="M508.18,84.16V11h13.93V84.16H508.18Z" transform="translate(-8.38 -8.92)"/><path d="M420.22,129.44c-1-2.18-2-4.23-3-6.29-0.28-.59-0.79-1.3.11-1.73s1.16,0.47,1.46,1.08c0.18,0.36.32,0.74,0.48,1.11q5.32,12.32,10.64,24.65c0.81,1.87,2,2.27,3.72,1.2q7.61-4.79,15.2-9.61l43.07-27.31L521.19,94A2,2,0,0,0,520,90.11c-4.24.08-8.49,0.1-12.73,0.16L399,91.6c-1.08,0-2.1.12-2.6,1.24s0.13,1.94.88,2.72c4.1,4.31,8.17,8.64,12.29,12.93a3.35,3.35,0,0,1,.92,3.42c-0.76,3-1.47,6.09-2.17,9.14-0.76,3.27-1.51,6.54-2.23,9.81-0.39,1.78.8,3.15,2.43,2.63C412.39,132.25,416.24,130.83,420.22,129.44Z" transform="translate(-8.38 -8.92)" style="fill:#fff"/><path d="M420.22,129.44c-4,1.39-7.83,2.81-11.74,4.06-1.63.52-2.82-.85-2.43-2.63,0.72-3.28,1.47-6.55,2.23-9.81,0.71-3.05,1.41-6.1,2.17-9.14a3.35,3.35,0,0,0-.92-3.42c-4.12-4.29-8.19-8.63-12.29-12.93-0.74-.78-1.4-1.59-0.88-2.72s1.52-1.22,2.6-1.24l108.31-1.33c4.24-.05,8.49-0.07,12.73-0.16A2,2,0,0,1,521.19,94l-29.25,18.53-43.07,27.31q-7.6,4.81-15.2,9.61c-1.7,1.07-2.91.67-3.72-1.2q-5.33-12.32-10.64-24.65c-0.16-.37-0.3-0.75-0.48-1.11-0.3-.61-0.46-1.55-1.46-1.08s-0.39,1.14-.11,1.73C418.21,125.21,419.19,127.26,420.22,129.44Zm92.5-35.75-0.07-.39c-0.46.08-.93,0.14-1.39,0.23q-31.92,6.07-63.85,12.12a7.48,7.48,0,0,1-3.15-.17c-4.46-1.15-8.88-2.42-13.32-3.64l-15-4.08c-4.79-1.3-9.58-2.61-14.38-3.87a3.09,3.09,0,0,0-1.16.18,3.12,3.12,0,0,0,.87.8q13.82,4.78,27.65,9.51c2.11,0.73,4.23,1.45,6.33,2.21a2.41,2.41,0,0,1,.68.69,4.31,4.31,0,0,1-.8.56,5.16,5.16,0,0,1-1,.23c-6.06,1.14-12.11,2.29-18.18,3.41a3,3,0,0,0-2.74,2.22c-0.76,2.95-1.46,5.91-2.14,8.87a2.36,2.36,0,0,0,.3,1,2.56,2.56,0,0,0,.68-0.67c0.75-1.82,1.46-3.65,2.17-5.49a2.22,2.22,0,0,1,1.68-1.7c7.9-1.5,15.79-3,23.68-4.55,1.13-.22,1.34.1,1,1.25q-4.24,16.43-8.45,32.87a8.44,8.44,0,0,0-.12,1.45l0.41,0.13a8.12,8.12,0,0,0,.75-1.24c0.88-2.25,1.71-4.51,2.57-6.77,3.42-9,6.87-18,10.23-27a4.26,4.26,0,0,1,3.34-2.88q28.73-6.9,57.45-13.86C508.77,94.69,510.74,94.18,512.72,93.69Z" transform="translate(-8.38 -8.92)"/><path d="M512.72,93.69c-2,.49-3.95,1-5.93,1.48q-28.72,6.95-57.45,13.86a4.26,4.26,0,0,0-3.34,2.88c-3.37,9-6.82,18-10.23,27-0.86,2.26-1.69,4.52-2.57,6.77a8.12,8.12,0,0,1-.75,1.24l-0.41-.13a8.44,8.44,0,0,1,.12-1.45q4.21-16.44,8.45-32.87c0.3-1.15.08-1.47-1-1.25-7.9,1.51-15.79,3-23.68,4.55a2.22,2.22,0,0,0-1.68,1.7c-0.71,1.83-1.42,3.67-2.17,5.49a2.56,2.56,0,0,1-.68.67,2.36,2.36,0,0,1-.3-1c0.68-3,1.38-5.93,2.14-8.87a3,3,0,0,1,2.74-2.22c6.06-1.11,12.12-2.27,18.18-3.41a5.16,5.16,0,0,0,1-.23,4.31,4.31,0,0,0,.8-0.56,2.41,2.41,0,0,0-.68-0.69c-2.1-.77-4.22-1.49-6.33-2.21q-13.83-4.75-27.65-9.51a3.12,3.12,0,0,1-.87-0.8,3.09,3.09,0,0,1,1.16-.18c4.8,1.27,9.59,2.57,14.38,3.87l15,4.08c4.44,1.21,8.87,2.48,13.32,3.64a7.48,7.48,0,0,0,3.15.17q31.93-6,63.85-12.12c0.46-.09.93-0.15,1.39-0.23Z" transform="translate(-8.38 -8.92)" style="fill:#fff"/></svg>